<mxfile host="app.diagrams.net" modified="2023-10-09T22:57:07.592Z" agent="Mozilla/5.0 (Linux; Android 10; K) AppleWebKit/537.36 (KHTML, like Gecko) Chrome/117.0.0.0 Mobile Safari/537.36" version="22.0.4" etag="XJOeMOE3LShtY0YQuOhB" type="github">
  <diagram name="PÃ¡gina-1" id="ovqZu_91qIcTCO9pu2Lw">
    <mxGraphModel>
      <root>
        <mxCell id="0" />
        <mxCell id="1" parent="0" />
      </root>
    </mxGraphModel>
  </diagram>
</mxfile>
